G04*
G04 #@! TF.GenerationSoftware,Altium Limited,Altium Designer,23.2.1 (34)*
G04*
G04 Layer_Physical_Order=2*
G04 Layer_Color=16711680*
%FSLAX44Y44*%
%MOMM*%
G71*
G04*
G04 #@! TF.SameCoordinates,1D430AEC-14A7-47DC-8016-A447EEC89EF4*
G04*
G04*
G04 #@! TF.FilePolarity,Positive*
G04*
G01*
G75*
%ADD15C,1.3500*%
%ADD16R,1.3500X1.3500*%
%ADD17C,1.5700*%
%ADD18R,1.5700X1.5700*%
%ADD20C,2.6500*%
%ADD21R,2.6500X2.6500*%
%ADD22C,1.2500*%
%ADD23R,1.2500X1.2500*%
%ADD26R,1.5700X1.5700*%
%ADD28R,1.3500X1.3500*%
%ADD31R,1.2500X1.2500*%
%ADD32R,1.0500X1.0500*%
%ADD33C,1.0500*%
%ADD34C,1.4000*%
%ADD35R,1.0500X1.0500*%
%ADD36C,1.6500*%
%ADD37C,2.0000*%
%ADD38C,1.2000*%
G36*
X656590Y1094740D02*
X613410D01*
Y1164590D01*
X532130D01*
Y946150D01*
Y941070D01*
X532130Y935990D01*
X488950D01*
Y1009650D01*
X487680Y1008380D01*
X415290D01*
X416560Y1007110D01*
Y750570D01*
X269978D01*
Y1261110D01*
X656590D01*
Y1094740D01*
D02*
G37*
G36*
X594360Y939800D02*
X593090Y938530D01*
X551180D01*
Y1140460D01*
X549910Y1141730D01*
X594360D01*
Y939800D01*
D02*
G37*
G36*
X683260Y1258570D02*
X933450D01*
Y835660D01*
X681990D01*
Y1249680D01*
Y1258570D01*
Y1259840D01*
X683260Y1258570D01*
D02*
G37*
G36*
X1755140Y1256030D02*
X1760220Y1250950D01*
Y969010D01*
X1207770D01*
Y706120D01*
X955040D01*
Y1258558D01*
X1755140Y1256030D01*
D02*
G37*
G36*
X435610Y984250D02*
X474980D01*
Y923290D01*
X505460Y892810D01*
Y718820D01*
Y684530D01*
X519430Y670560D01*
X554990D01*
Y814705D01*
X770890D01*
X770890Y760095D01*
X784860Y746125D01*
X880110D01*
Y635635D01*
X878840Y634365D01*
X880110Y633095D01*
X571500D01*
X554355Y650240D01*
X486410D01*
X473710Y662940D01*
Y754380D01*
X435610Y792480D01*
Y984250D01*
X434340D01*
X435610Y985520D01*
Y984250D01*
D02*
G37*
G36*
X1760220Y270510D02*
X274320D01*
X270510Y266700D01*
Y739140D01*
X417830D01*
X417830Y735330D01*
Y731520D01*
Y458470D01*
X937260D01*
Y511810D01*
X1280160D01*
Y612140D01*
X1235710D01*
Y951230D01*
X1760220D01*
Y270510D01*
D02*
G37*
D15*
X530860Y683260D02*
D03*
Y657860D02*
D03*
X997690Y1098550D02*
D03*
X899690D02*
D03*
X995150Y1009650D02*
D03*
X897150D02*
D03*
X997690Y916940D02*
D03*
X899690D02*
D03*
X1115060Y553720D02*
D03*
X1089660D02*
D03*
D16*
X530860Y632460D02*
D03*
D17*
X930910Y1200150D02*
D03*
X1714500Y974090D02*
D03*
X388620Y731520D02*
D03*
X298450Y732790D02*
D03*
D18*
X956310Y1200150D02*
D03*
D20*
X686850Y1127760D02*
D03*
X632350D02*
D03*
X566420Y967740D02*
D03*
X511920D02*
D03*
D21*
X577850Y1127760D02*
D03*
X457420Y967740D02*
D03*
D22*
X999960Y745490D02*
D03*
X554990Y501650D02*
D03*
X1257300Y454190D02*
D03*
D23*
X899960Y745490D02*
D03*
X654990Y501650D02*
D03*
D26*
X1714500Y948690D02*
D03*
X388620Y756920D02*
D03*
X298450Y758190D02*
D03*
D28*
X1064260Y553720D02*
D03*
D31*
X1257300Y554190D02*
D03*
D32*
X765000Y787400D02*
D03*
D33*
X784860D02*
D03*
X800000D02*
D03*
X862330Y619760D02*
D03*
Y601000D02*
D03*
D34*
X1414780Y934720D02*
D03*
Y984720D02*
D03*
X1569720Y932180D02*
D03*
Y982180D02*
D03*
X1261110Y935990D02*
D03*
Y985990D02*
D03*
D35*
X862330Y640000D02*
D03*
D36*
X983530Y488950D02*
D03*
X893530D02*
D03*
D37*
X923290Y678180D02*
Y722160D01*
X1043940Y557530D02*
X1060450D01*
X923290Y678180D02*
X1043940Y557530D01*
X1256830Y553720D02*
X1257300Y554190D01*
X1115060Y553720D02*
X1256830D01*
X1060450Y557530D02*
X1064260Y553720D01*
X899960Y745490D02*
X923290Y722160D01*
D38*
X690880Y657860D02*
X760730Y727710D01*
Y783130D01*
X765000Y731980D02*
Y749300D01*
X760730Y783130D02*
X765000Y787400D01*
X760730Y727710D02*
X765000Y731980D01*
X483870Y683260D02*
Y826770D01*
X457420Y853220D02*
Y967740D01*
Y853220D02*
X483870Y826770D01*
X447040Y609600D02*
Y737870D01*
Y609600D02*
X530860Y525780D01*
X427990Y756920D02*
X447040Y737870D01*
X388620Y756920D02*
X427990D01*
X483870Y683260D02*
X509270Y657860D01*
X862330Y619760D02*
X916940D01*
X862330Y518932D02*
X879612Y501650D01*
X862330Y518932D02*
Y601000D01*
X770890Y749300D02*
X862330Y657860D01*
Y640000D02*
Y657860D01*
X566420Y1116330D02*
X577850Y1127760D01*
X566420Y967740D02*
Y1116330D01*
X530860Y657860D02*
X690880D01*
X799400Y787400D02*
X956310D01*
X916940Y619760D02*
X919480Y617220D01*
X886460Y494802D02*
X892312Y488950D01*
X1009650Y528320D02*
X1082040D01*
X920750Y617220D02*
X1009650Y528320D01*
X919480Y617220D02*
X920750D01*
X784860Y848360D02*
X787400Y850900D01*
X784860Y787400D02*
Y848360D01*
X1089660Y553720D02*
X1089947Y553433D01*
Y538193D02*
Y553433D01*
Y538193D02*
X1090930Y537210D01*
X1082040Y528320D02*
X1090930Y537210D01*
X654990Y501650D02*
X879612D01*
X892312Y488950D02*
X893530D01*
X530860Y525780D02*
Y632460D01*
Y525780D02*
X554990Y501650D01*
X509270Y657860D02*
X530860D01*
M02*
