G04*
G04 #@! TF.GenerationSoftware,Altium Limited,Altium Designer,23.2.1 (34)*
G04*
G04 Layer_Physical_Order=1*
G04 Layer_Color=255*
%FSLAX44Y44*%
%MOMM*%
G71*
G04*
G04 #@! TF.SameCoordinates,1D430AEC-14A7-47DC-8016-A447EEC89EF4*
G04*
G04*
G04 #@! TF.FilePolarity,Positive*
G04*
G01*
G75*
%ADD15C,1.3500*%
%ADD16R,1.3500X1.3500*%
%ADD17C,1.5700*%
%ADD18R,1.5700X1.5700*%
%ADD20C,2.6500*%
%ADD21R,2.6500X2.6500*%
%ADD22C,1.2500*%
%ADD23R,1.2500X1.2500*%
%ADD26R,1.5700X1.5700*%
%ADD28R,1.3500X1.3500*%
%ADD31R,1.2500X1.2500*%
%ADD32R,1.0500X1.0500*%
%ADD33C,1.0500*%
%ADD34C,1.4000*%
%ADD35R,1.0500X1.0500*%
%ADD36C,1.6500*%
D15*
X530860Y683260D02*
D03*
Y657860D02*
D03*
X997690Y1098550D02*
D03*
X899690D02*
D03*
X995150Y1009650D02*
D03*
X897150D02*
D03*
X997690Y916940D02*
D03*
X899690D02*
D03*
X1115060Y553720D02*
D03*
X1089660D02*
D03*
D16*
X530860Y632460D02*
D03*
D17*
X930910Y1200150D02*
D03*
X1714500Y974090D02*
D03*
X388620Y731520D02*
D03*
X298450Y732790D02*
D03*
D18*
X956310Y1200150D02*
D03*
D20*
X686850Y1127760D02*
D03*
X632350D02*
D03*
X566420Y967740D02*
D03*
X511920D02*
D03*
D21*
X577850Y1127760D02*
D03*
X457420Y967740D02*
D03*
D22*
X999960Y745490D02*
D03*
X554990Y501650D02*
D03*
X1257300Y454190D02*
D03*
D23*
X899960Y745490D02*
D03*
X654990Y501650D02*
D03*
D26*
X1714500Y948690D02*
D03*
X388620Y756920D02*
D03*
X298450Y758190D02*
D03*
D28*
X1064260Y553720D02*
D03*
D31*
X1257300Y554190D02*
D03*
D32*
X765000Y787400D02*
D03*
D33*
X784860D02*
D03*
X800000D02*
D03*
X862330Y619760D02*
D03*
Y601000D02*
D03*
D34*
X1414780Y934720D02*
D03*
Y984720D02*
D03*
X1569720Y932180D02*
D03*
Y982180D02*
D03*
X1261110Y935990D02*
D03*
Y985990D02*
D03*
D35*
X862330Y640000D02*
D03*
D36*
X983530Y488950D02*
D03*
X893530D02*
D03*
M02*
