G04*
G04 #@! TF.GenerationSoftware,Altium Limited,Altium Designer,23.2.1 (34)*
G04*
G04 Layer_Physical_Order=2*
G04 Layer_Color=16711680*
%FSLAX44Y44*%
%MOMM*%
G71*
G04*
G04 #@! TF.SameCoordinates,851AC272-0A9D-4C73-9226-38D0B36C9836*
G04*
G04*
G04 #@! TF.FilePolarity,Positive*
G04*
G01*
G75*
%ADD20C,1.3000*%
%ADD21R,1.3000X1.3000*%
%ADD22C,1.2500*%
%ADD23R,1.2500X1.2500*%
%ADD28R,1.5500X1.5500*%
%ADD29C,1.5500*%
%ADD30C,1.6000*%
%ADD31R,1.6000X1.6000*%
%ADD32C,1.7000*%
%ADD33R,1.7000X1.7000*%
%ADD34R,1.5000X1.5000*%
%ADD35C,1.5000*%
%ADD36C,1.9000*%
%ADD37R,1.9000X1.9000*%
%ADD38C,2.0000*%
%ADD39C,1.0000*%
D20*
X586740Y970440D02*
D03*
X585470Y855030D02*
D03*
D21*
X586740Y990440D02*
D03*
X585470Y875030D02*
D03*
D22*
X872960Y895350D02*
D03*
Y825500D02*
D03*
X1030770Y711200D02*
D03*
D23*
X772960Y895350D02*
D03*
Y825500D02*
D03*
X1130770Y711200D02*
D03*
D28*
X1116330Y905510D02*
D03*
D29*
Y880110D02*
D03*
Y854710D02*
D03*
D30*
X689610Y1065530D02*
D03*
X664210D02*
D03*
D31*
X638810D02*
D03*
D32*
X687070Y1184910D02*
D03*
X661670D02*
D03*
D33*
X636270D02*
D03*
D34*
X957580Y904240D02*
D03*
D35*
Y878840D02*
D03*
Y853440D02*
D03*
Y828040D02*
D03*
X1033780Y904240D02*
D03*
Y878840D02*
D03*
Y853440D02*
D03*
Y828040D02*
D03*
D36*
X952500Y648970D02*
D03*
X1016000D02*
D03*
X670560Y669290D02*
D03*
X734060D02*
D03*
D37*
X889000Y648970D02*
D03*
X607060Y669290D02*
D03*
D38*
X720090Y969010D02*
X1016000D01*
X664210Y1024890D02*
X720090Y969010D01*
X664210Y1024890D02*
Y1065530D01*
X969010D02*
X1116330Y918210D01*
X584200Y848360D02*
X607060Y825500D01*
X584510Y874070D02*
X751680D01*
X1116330Y905510D02*
Y918210D01*
X1016000Y969010D02*
X1065530Y919480D01*
X831850Y868680D02*
X858520Y895350D01*
X689610Y1065530D02*
X969010D01*
X751680Y874070D02*
X772960Y895350D01*
X607060Y825500D02*
X772960D01*
X585470Y991870D02*
Y1037590D01*
X593090Y969010D02*
X720090D01*
X585470Y1037590D02*
X613410Y1065530D01*
X638810D01*
X687070Y1184910D02*
Y1201420D01*
X661670Y1184910D02*
X664210Y1182370D01*
Y1065530D02*
Y1182370D01*
X631190Y1073150D02*
Y1183640D01*
X734060Y669290D02*
X831850Y767080D01*
Y868680D01*
X584510Y874070D02*
X585470Y875030D01*
X631190Y1073150D02*
X638810Y1065530D01*
X858520Y895350D02*
X872960D01*
X511810Y1176020D02*
X570230Y1234440D01*
X654050D02*
X687070Y1201420D01*
X511810Y970280D02*
Y1176020D01*
Y970280D02*
X543560Y938530D01*
X570230Y1234440D02*
X654050D01*
D39*
X670560Y669290D02*
X789940Y549910D01*
X869950D01*
X1085850Y881380D02*
X1126490D01*
X1127760Y880110D01*
X927100Y607060D02*
Y669290D01*
X869950Y549910D02*
X927100Y607060D01*
X969010Y711200D02*
X1030770D01*
X1095210Y678180D02*
X1158240Y741210D01*
X1127760Y880110D02*
X1148080D01*
X1158240Y869950D01*
Y741210D02*
Y869950D01*
X1033780Y853440D02*
X1034415Y854075D01*
X1115695D02*
X1116330Y854710D01*
X1029500Y712470D02*
X1116330Y799300D01*
Y854710D01*
X1034415Y854075D02*
X1115695D01*
X981710Y678180D02*
X1095210D01*
X927100Y669290D02*
X969010Y711200D01*
X952500Y648970D02*
X981710Y678180D01*
X585470Y991710D02*
Y991870D01*
Y991710D02*
X586740Y990440D01*
X872960Y825500D02*
X889000Y809460D01*
Y648970D02*
Y809460D01*
X872960Y825500D02*
X906780D01*
X1065530Y919480D02*
X1075690Y909320D01*
Y891540D02*
Y909320D01*
X969010Y938530D02*
X1027743Y879797D01*
X1075690Y891540D02*
X1085850Y881380D01*
X934720Y853440D02*
X957580D01*
X906780Y825500D02*
X934720Y853440D01*
X1027743Y879797D02*
X1032823D01*
X1033780Y878840D01*
X933450D02*
X957580D01*
X916940Y895350D02*
X933450Y878840D01*
X872960Y895350D02*
X916940D01*
X543560Y938530D02*
X969010D01*
M02*
