G04*
G04 #@! TF.GenerationSoftware,Altium Limited,Altium Designer,23.2.1 (34)*
G04*
G04 Layer_Physical_Order=1*
G04 Layer_Color=255*
%FSLAX44Y44*%
%MOMM*%
G71*
G04*
G04 #@! TF.SameCoordinates,851AC272-0A9D-4C73-9226-38D0B36C9836*
G04*
G04*
G04 #@! TF.FilePolarity,Positive*
G04*
G01*
G75*
%ADD20C,1.3000*%
%ADD21R,1.3000X1.3000*%
%ADD22C,1.2500*%
%ADD23R,1.2500X1.2500*%
%ADD28R,1.5500X1.5500*%
%ADD29C,1.5500*%
%ADD30C,1.6000*%
%ADD31R,1.6000X1.6000*%
%ADD32C,1.7000*%
%ADD33R,1.7000X1.7000*%
%ADD34R,1.5000X1.5000*%
%ADD35C,1.5000*%
%ADD36C,1.9000*%
%ADD37R,1.9000X1.9000*%
D20*
X586740Y970440D02*
D03*
X585470Y855030D02*
D03*
D21*
X586740Y990440D02*
D03*
X585470Y875030D02*
D03*
D22*
X872960Y895350D02*
D03*
Y825500D02*
D03*
X1030770Y711200D02*
D03*
D23*
X772960Y895350D02*
D03*
Y825500D02*
D03*
X1130770Y711200D02*
D03*
D28*
X1116330Y905510D02*
D03*
D29*
Y880110D02*
D03*
Y854710D02*
D03*
D30*
X689610Y1065530D02*
D03*
X664210D02*
D03*
D31*
X638810D02*
D03*
D32*
X687070Y1184910D02*
D03*
X661670D02*
D03*
D33*
X636270D02*
D03*
D34*
X957580Y904240D02*
D03*
D35*
Y878840D02*
D03*
Y853440D02*
D03*
Y828040D02*
D03*
X1033780Y904240D02*
D03*
Y878840D02*
D03*
Y853440D02*
D03*
Y828040D02*
D03*
D36*
X952500Y648970D02*
D03*
X1016000D02*
D03*
X670560Y669290D02*
D03*
X734060D02*
D03*
D37*
X889000Y648970D02*
D03*
X607060Y669290D02*
D03*
M02*
